solid Exported from Blender-2.80 (sub 75)
facet normal 1.000000 0.000000 0.000000
outer loop
vertex 0.055735 0.878335 1.611033
vertex 0.055735 -0.878335 1.611033
vertex 0.055735 -0.878335 -1.653506
endloop
endfacet
facet normal 1.000000 0.000000 0.000000
outer loop
vertex 0.055735 0.878335 1.611033
vertex 0.055735 -0.878335 -1.653506
vertex 0.055735 0.878335 -1.653506
endloop
endfacet
facet normal 0.000000 0.000000 -1.000000
outer loop
vertex 0.055735 0.878335 -1.653506
vertex 0.055735 -0.878335 -1.653506
vertex -0.055735 -0.878335 -1.653506
endloop
endfacet
facet normal 0.000000 0.000000 -1.000000
outer loop
vertex 0.055735 0.878335 -1.653506
vertex -0.055735 -0.878335 -1.653506
vertex -0.055735 0.878335 -1.653506
endloop
endfacet
facet normal -0.433188 -0.901303 0.000000
outer loop
vertex -0.055735 0.794415 1.527113
vertex -0.055735 0.794415 -1.569586
vertex -0.019700 0.777096 -1.543198
endloop
endfacet
facet normal -0.433188 -0.901303 0.000000
outer loop
vertex -0.055735 0.794415 1.527113
vertex -0.019700 0.777096 -1.543198
vertex -0.019700 0.777096 1.500726
endloop
endfacet
facet normal 0.000000 0.000000 1.000000
outer loop
vertex -0.055735 0.878335 1.611033
vertex -0.055735 -0.878335 1.611033
vertex 0.055735 -0.878335 1.611033
endloop
endfacet
facet normal 0.000000 0.000000 1.000000
outer loop
vertex -0.055735 0.878335 1.611033
vertex 0.055735 -0.878335 1.611033
vertex 0.055735 0.878335 1.611033
endloop
endfacet
facet normal 0.000000 1.000000 0.000000
outer loop
vertex 0.055735 0.878335 -1.653506
vertex -0.055735 0.878335 -1.653506
vertex -0.055735 0.878335 1.611033
endloop
endfacet
facet normal 0.000000 1.000000 0.000000
outer loop
vertex 0.055735 0.878335 -1.653506
vertex -0.055735 0.878335 1.611033
vertex 0.055735 0.878335 1.611033
endloop
endfacet
facet normal 0.000000 -1.000000 0.000000
outer loop
vertex -0.055735 -0.878335 -1.653506
vertex 0.055735 -0.878335 -1.653506
vertex 0.055735 -0.878335 1.611033
endloop
endfacet
facet normal 0.000000 -1.000000 0.000000
outer loop
vertex -0.055735 -0.878335 -1.653506
vertex 0.055735 -0.878335 1.611033
vertex -0.055735 -0.878335 1.611033
endloop
endfacet
facet normal -1.000000 0.000000 0.000000
outer loop
vertex -0.055735 -0.794415 -1.569586
vertex -0.055735 0.794415 -1.569586
vertex -0.055735 0.878335 -1.653506
endloop
endfacet
facet normal -1.000000 0.000000 0.000000
outer loop
vertex -0.055735 -0.794415 -1.569586
vertex -0.055735 0.878335 -1.653506
vertex -0.055735 -0.878335 -1.653506
endloop
endfacet
facet normal -1.000000 0.000000 0.000000
outer loop
vertex -0.055735 0.794415 -1.569586
vertex -0.055735 0.794415 1.527113
vertex -0.055735 0.878335 1.611033
endloop
endfacet
facet normal -1.000000 0.000000 0.000000
outer loop
vertex -0.055735 0.794415 -1.569586
vertex -0.055735 0.878335 1.611033
vertex -0.055735 0.878335 -1.653506
endloop
endfacet
facet normal -1.000000 -0.000000 0.000000
outer loop
vertex -0.055735 -0.794415 1.527113
vertex -0.055735 -0.794415 -1.569586
vertex -0.055735 -0.878335 -1.653506
endloop
endfacet
facet normal -1.000000 0.000000 0.000000
outer loop
vertex -0.055735 -0.794415 1.527113
vertex -0.055735 -0.878335 -1.653506
vertex -0.055735 -0.878335 1.611033
endloop
endfacet
facet normal -1.000000 0.000000 0.000000
outer loop
vertex -0.055735 0.794415 1.527113
vertex -0.055735 -0.794415 1.527113
vertex -0.055735 -0.878335 1.611033
endloop
endfacet
facet normal -1.000000 0.000000 0.000000
outer loop
vertex -0.055735 0.794415 1.527113
vertex -0.055735 -0.878335 1.611033
vertex -0.055735 0.878335 1.611033
endloop
endfacet
facet normal -0.433188 0.901303 0.000000
outer loop
vertex -0.055735 -0.794415 -1.569586
vertex -0.055735 -0.794415 1.527113
vertex -0.019700 -0.777096 1.500726
endloop
endfacet
facet normal -0.433188 0.901303 0.000000
outer loop
vertex -0.055735 -0.794415 -1.569586
vertex -0.019700 -0.777096 1.500726
vertex -0.019700 -0.777096 -1.543198
endloop
endfacet
facet normal -0.590806 0.000000 0.806813
outer loop
vertex -0.055735 0.794415 -1.569586
vertex -0.055735 -0.794415 -1.569586
vertex -0.019700 -0.777096 -1.543198
endloop
endfacet
facet normal -0.590806 0.000000 0.806814
outer loop
vertex -0.055735 0.794415 -1.569586
vertex -0.019700 -0.777096 -1.543198
vertex -0.019700 0.777096 -1.543198
endloop
endfacet
facet normal -0.590808 0.000000 -0.806812
outer loop
vertex -0.055735 -0.794415 1.527113
vertex -0.055735 0.794415 1.527113
vertex -0.019700 0.777096 1.500726
endloop
endfacet
facet normal -0.590806 0.000000 -0.806814
outer loop
vertex -0.055735 -0.794415 1.527113
vertex -0.019700 0.777096 1.500726
vertex -0.019700 -0.777096 1.500726
endloop
endfacet
endsolid Exported from Blender-2.80 (sub 75)
