solid Exported from Blender-2.80 (sub 75)
facet normal 1.000000 0.000000 0.000000
outer loop
vertex -0.832025 0.672627 0.389381
vertex -0.832025 0.000199 0.389381
vertex -0.832025 0.000199 0.314340
endloop
endfacet
facet normal 1.000000 0.000000 0.000000
outer loop
vertex -0.832025 0.672627 0.389381
vertex -0.832025 0.000199 0.314340
vertex -0.832025 0.672627 0.314340
endloop
endfacet
facet normal 0.000000 0.000000 -1.000000
outer loop
vertex -0.832025 0.672627 0.314340
vertex -0.832025 0.000199 0.314340
vertex -0.900069 0.000199 0.314340
endloop
endfacet
facet normal 0.000000 0.000000 -1.000000
outer loop
vertex -0.832025 0.672627 0.314340
vertex -0.900069 0.000199 0.314340
vertex -0.900069 0.672627 0.314340
endloop
endfacet
facet normal -1.000000 0.000000 0.000000
outer loop
vertex -0.900069 0.672627 0.314340
vertex -0.900069 0.000199 0.314340
vertex -0.900069 0.000199 0.389381
endloop
endfacet
facet normal -1.000000 0.000000 0.000000
outer loop
vertex -0.900069 0.672627 0.314340
vertex -0.900069 0.000199 0.389381
vertex -0.900069 0.672627 0.389381
endloop
endfacet
facet normal 0.000000 0.000000 1.000000
outer loop
vertex -0.900069 0.672627 0.389381
vertex -0.900069 0.000199 0.389381
vertex -0.832025 0.000199 0.389381
endloop
endfacet
facet normal 0.000000 0.000000 1.000000
outer loop
vertex -0.900069 0.672627 0.389381
vertex -0.832025 0.000199 0.389381
vertex -0.832025 0.672627 0.389381
endloop
endfacet
facet normal 0.000000 1.000000 0.000000
outer loop
vertex -0.832025 0.672627 0.314340
vertex -0.900069 0.672627 0.314340
vertex -0.900069 0.672627 0.389381
endloop
endfacet
facet normal 0.000000 1.000000 0.000000
outer loop
vertex -0.832025 0.672627 0.314340
vertex -0.900069 0.672627 0.389381
vertex -0.832025 0.672627 0.389381
endloop
endfacet
facet normal 0.000000 -1.000000 0.000000
outer loop
vertex -0.900069 0.000199 0.314340
vertex -0.832025 0.000199 0.314340
vertex -0.832025 0.000199 0.389381
endloop
endfacet
facet normal 0.000000 -1.000000 0.000000
outer loop
vertex -0.900069 0.000199 0.314340
vertex -0.832025 0.000199 0.389381
vertex -0.900069 0.000199 0.389381
endloop
endfacet
facet normal 1.000000 0.000000 0.000000
outer loop
vertex 0.906747 0.672627 0.389381
vertex 0.906747 0.000199 0.389381
vertex 0.906747 0.000199 0.314340
endloop
endfacet
facet normal 1.000000 0.000000 0.000000
outer loop
vertex 0.906747 0.672627 0.389381
vertex 0.906747 0.000199 0.314340
vertex 0.906747 0.672627 0.314340
endloop
endfacet
facet normal 0.000000 0.000000 -1.000000
outer loop
vertex 0.906747 0.672627 0.314340
vertex 0.906747 0.000199 0.314340
vertex 0.838703 0.000199 0.314340
endloop
endfacet
facet normal 0.000000 0.000000 -1.000000
outer loop
vertex 0.906747 0.672627 0.314340
vertex 0.838703 0.000199 0.314340
vertex 0.838703 0.672627 0.314340
endloop
endfacet
facet normal -1.000000 0.000000 0.000000
outer loop
vertex 0.838703 0.672627 0.314340
vertex 0.838703 0.000199 0.314340
vertex 0.838703 0.000199 0.389381
endloop
endfacet
facet normal -1.000000 0.000000 0.000000
outer loop
vertex 0.838703 0.672627 0.314340
vertex 0.838703 0.000199 0.389381
vertex 0.838703 0.672627 0.389381
endloop
endfacet
facet normal 0.000000 0.000000 1.000000
outer loop
vertex 0.838703 0.672627 0.389381
vertex 0.838703 0.000199 0.389381
vertex 0.906747 0.000199 0.389381
endloop
endfacet
facet normal 0.000000 0.000000 1.000000
outer loop
vertex 0.838703 0.672627 0.389381
vertex 0.906747 0.000199 0.389381
vertex 0.906747 0.672627 0.389381
endloop
endfacet
facet normal 0.000000 1.000000 0.000000
outer loop
vertex 0.906747 0.672627 0.314340
vertex 0.838703 0.672627 0.314340
vertex 0.838703 0.672627 0.389381
endloop
endfacet
facet normal 0.000000 1.000000 0.000000
outer loop
vertex 0.906747 0.672627 0.314340
vertex 0.838703 0.672627 0.389381
vertex 0.906747 0.672627 0.389381
endloop
endfacet
facet normal 0.000000 -1.000000 0.000000
outer loop
vertex 0.838703 0.000199 0.314340
vertex 0.906747 0.000199 0.314340
vertex 0.906747 0.000199 0.389381
endloop
endfacet
facet normal 0.000000 -1.000000 0.000000
outer loop
vertex 0.838703 0.000199 0.314340
vertex 0.906747 0.000199 0.389381
vertex 0.838703 0.000199 0.389381
endloop
endfacet
facet normal 1.000000 0.000000 0.000000
outer loop
vertex 0.906747 0.672627 -0.317984
vertex 0.906747 0.000199 -0.317984
vertex 0.906747 0.000199 -0.393026
endloop
endfacet
facet normal 1.000000 0.000000 0.000000
outer loop
vertex 0.906747 0.672627 -0.317984
vertex 0.906747 0.000199 -0.393026
vertex 0.906747 0.672627 -0.393026
endloop
endfacet
facet normal 0.000000 0.000000 -1.000000
outer loop
vertex 0.906747 0.672627 -0.393026
vertex 0.906747 0.000199 -0.393026
vertex 0.838703 0.000199 -0.393026
endloop
endfacet
facet normal 0.000000 0.000000 -1.000000
outer loop
vertex 0.906747 0.672627 -0.393026
vertex 0.838703 0.000199 -0.393026
vertex 0.838703 0.672627 -0.393026
endloop
endfacet
facet normal -1.000000 0.000000 0.000000
outer loop
vertex 0.838703 0.672627 -0.393026
vertex 0.838703 0.000199 -0.393026
vertex 0.838703 0.000199 -0.317984
endloop
endfacet
facet normal -1.000000 0.000000 0.000000
outer loop
vertex 0.838703 0.672627 -0.393026
vertex 0.838703 0.000199 -0.317984
vertex 0.838703 0.672627 -0.317984
endloop
endfacet
facet normal 0.000000 0.000000 1.000000
outer loop
vertex 0.838703 0.672627 -0.317984
vertex 0.838703 0.000199 -0.317984
vertex 0.906747 0.000199 -0.317984
endloop
endfacet
facet normal 0.000000 0.000000 1.000000
outer loop
vertex 0.838703 0.672627 -0.317984
vertex 0.906747 0.000199 -0.317984
vertex 0.906747 0.672627 -0.317984
endloop
endfacet
facet normal 0.000000 1.000000 0.000000
outer loop
vertex 0.906747 0.672627 -0.393026
vertex 0.838703 0.672627 -0.393026
vertex 0.838703 0.672627 -0.317984
endloop
endfacet
facet normal 0.000000 1.000000 0.000000
outer loop
vertex 0.906747 0.672627 -0.393026
vertex 0.838703 0.672627 -0.317984
vertex 0.906747 0.672627 -0.317984
endloop
endfacet
facet normal 0.000000 -1.000000 0.000000
outer loop
vertex 0.838703 0.000199 -0.393026
vertex 0.906747 0.000199 -0.393026
vertex 0.906747 0.000199 -0.317984
endloop
endfacet
facet normal 0.000000 -1.000000 0.000000
outer loop
vertex 0.838703 0.000199 -0.393026
vertex 0.906747 0.000199 -0.317984
vertex 0.838703 0.000199 -0.317984
endloop
endfacet
facet normal 1.000000 0.000000 0.000000
outer loop
vertex -0.832405 0.672627 -0.317984
vertex -0.832405 0.000199 -0.317984
vertex -0.832405 0.000199 -0.393026
endloop
endfacet
facet normal 1.000000 0.000000 0.000000
outer loop
vertex -0.832405 0.672627 -0.317984
vertex -0.832405 0.000199 -0.393026
vertex -0.832405 0.672627 -0.393026
endloop
endfacet
facet normal 0.000000 0.000000 -1.000000
outer loop
vertex -0.832405 0.672627 -0.393026
vertex -0.832405 0.000199 -0.393026
vertex -0.900449 0.000199 -0.393026
endloop
endfacet
facet normal 0.000000 0.000000 -1.000000
outer loop
vertex -0.832405 0.672627 -0.393026
vertex -0.900449 0.000199 -0.393026
vertex -0.900449 0.672627 -0.393026
endloop
endfacet
facet normal -1.000000 0.000000 0.000000
outer loop
vertex -0.900449 0.672627 -0.393026
vertex -0.900449 0.000199 -0.393026
vertex -0.900449 0.000199 -0.317984
endloop
endfacet
facet normal -1.000000 0.000000 0.000000
outer loop
vertex -0.900449 0.672627 -0.393026
vertex -0.900449 0.000199 -0.317984
vertex -0.900449 0.672627 -0.317984
endloop
endfacet
facet normal 0.000000 0.000000 1.000000
outer loop
vertex -0.900449 0.672627 -0.317984
vertex -0.900449 0.000199 -0.317984
vertex -0.832405 0.000199 -0.317984
endloop
endfacet
facet normal 0.000000 0.000000 1.000000
outer loop
vertex -0.900449 0.672627 -0.317984
vertex -0.832405 0.000199 -0.317984
vertex -0.832405 0.672627 -0.317984
endloop
endfacet
facet normal 0.000000 1.000000 0.000000
outer loop
vertex -0.832405 0.672627 -0.393026
vertex -0.900449 0.672627 -0.393026
vertex -0.900449 0.672627 -0.317984
endloop
endfacet
facet normal 0.000000 1.000000 0.000000
outer loop
vertex -0.832405 0.672627 -0.393026
vertex -0.900449 0.672627 -0.317984
vertex -0.832405 0.672627 -0.317984
endloop
endfacet
facet normal 0.000000 -1.000000 0.000000
outer loop
vertex -0.900449 0.000199 -0.393026
vertex -0.832405 0.000199 -0.393026
vertex -0.832405 0.000199 -0.317984
endloop
endfacet
facet normal 0.000000 -1.000000 0.000000
outer loop
vertex -0.900449 0.000199 -0.393026
vertex -0.832405 0.000199 -0.317984
vertex -0.900449 0.000199 -0.317984
endloop
endfacet
facet normal 1.000000 0.000000 0.000000
outer loop
vertex 0.863603 0.118023 0.337695
vertex 0.863603 0.118023 0.368104
vertex 0.863603 0.002248 0.368104
endloop
endfacet
facet normal 1.000000 0.000000 0.000000
outer loop
vertex 0.863603 0.118023 0.337695
vertex 0.863603 0.002248 0.368104
vertex 0.863603 0.002248 0.337695
endloop
endfacet
facet normal 0.000000 0.000000 1.000000
outer loop
vertex 0.863603 0.118023 0.368104
vertex -0.863603 0.118023 0.368104
vertex -0.863603 0.002248 0.368104
endloop
endfacet
facet normal 0.000000 0.000000 1.000000
outer loop
vertex 0.863603 0.118023 0.368104
vertex -0.863603 0.002248 0.368104
vertex 0.863603 0.002248 0.368104
endloop
endfacet
facet normal -1.000000 0.000000 0.000000
outer loop
vertex -0.863603 0.118023 0.368104
vertex -0.863603 0.118023 0.337695
vertex -0.863603 0.002248 0.337695
endloop
endfacet
facet normal -1.000000 0.000000 0.000000
outer loop
vertex -0.863603 0.118023 0.368104
vertex -0.863603 0.002248 0.337695
vertex -0.863603 0.002248 0.368104
endloop
endfacet
facet normal 0.000000 0.000000 -1.000000
outer loop
vertex -0.863603 0.118023 0.337695
vertex 0.863603 0.118023 0.337695
vertex 0.863603 0.002248 0.337695
endloop
endfacet
facet normal 0.000000 0.000000 -1.000000
outer loop
vertex -0.863603 0.118023 0.337695
vertex 0.863603 0.002248 0.337695
vertex -0.863603 0.002248 0.337695
endloop
endfacet
facet normal 0.000000 1.000000 0.000000
outer loop
vertex 0.863603 0.118023 0.368104
vertex 0.863603 0.118023 0.337695
vertex -0.863603 0.118023 0.337695
endloop
endfacet
facet normal 0.000000 1.000000 0.000000
outer loop
vertex 0.863603 0.118023 0.368104
vertex -0.863603 0.118023 0.337695
vertex -0.863603 0.118023 0.368104
endloop
endfacet
facet normal 0.000000 -1.000000 0.000000
outer loop
vertex -0.863603 0.002248 0.368104
vertex -0.863603 0.002248 0.337695
vertex 0.863603 0.002248 0.337695
endloop
endfacet
facet normal 0.000000 -1.000000 0.000000
outer loop
vertex -0.863603 0.002248 0.368104
vertex 0.863603 0.002248 0.337695
vertex 0.863603 0.002248 0.368104
endloop
endfacet
facet normal 1.000000 0.000000 0.000000
outer loop
vertex 0.863603 0.118023 -0.368815
vertex 0.863603 0.118023 -0.338406
vertex 0.863603 0.002248 -0.338406
endloop
endfacet
facet normal 1.000000 0.000000 0.000000
outer loop
vertex 0.863603 0.118023 -0.368815
vertex 0.863603 0.002248 -0.338406
vertex 0.863603 0.002248 -0.368815
endloop
endfacet
facet normal 0.000000 0.000000 1.000000
outer loop
vertex 0.863603 0.118023 -0.338406
vertex -0.863603 0.118023 -0.338406
vertex -0.863603 0.002248 -0.338406
endloop
endfacet
facet normal 0.000000 0.000000 1.000000
outer loop
vertex 0.863603 0.118023 -0.338406
vertex -0.863603 0.002248 -0.338406
vertex 0.863603 0.002248 -0.338406
endloop
endfacet
facet normal -1.000000 0.000000 0.000000
outer loop
vertex -0.863603 0.118023 -0.338406
vertex -0.863603 0.118023 -0.368815
vertex -0.863603 0.002248 -0.368815
endloop
endfacet
facet normal -1.000000 0.000000 0.000000
outer loop
vertex -0.863603 0.118023 -0.338406
vertex -0.863603 0.002248 -0.368815
vertex -0.863603 0.002248 -0.338406
endloop
endfacet
facet normal 0.000000 0.000000 -1.000000
outer loop
vertex -0.863603 0.118023 -0.368815
vertex 0.863603 0.118023 -0.368815
vertex 0.863603 0.002248 -0.368815
endloop
endfacet
facet normal 0.000000 0.000000 -1.000000
outer loop
vertex -0.863603 0.118023 -0.368815
vertex 0.863603 0.002248 -0.368815
vertex -0.863603 0.002248 -0.368815
endloop
endfacet
facet normal 0.000000 1.000000 0.000000
outer loop
vertex 0.863603 0.118023 -0.338406
vertex 0.863603 0.118023 -0.368815
vertex -0.863603 0.118023 -0.368815
endloop
endfacet
facet normal 0.000000 1.000000 0.000000
outer loop
vertex 0.863603 0.118023 -0.338406
vertex -0.863603 0.118023 -0.368815
vertex -0.863603 0.118023 -0.338406
endloop
endfacet
facet normal 0.000000 -1.000000 0.000000
outer loop
vertex -0.863603 0.002248 -0.338406
vertex -0.863603 0.002248 -0.368815
vertex 0.863603 0.002248 -0.368815
endloop
endfacet
facet normal 0.000000 -1.000000 0.000000
outer loop
vertex -0.863603 0.002248 -0.338406
vertex 0.863603 0.002248 -0.368815
vertex 0.863603 0.002248 -0.338406
endloop
endfacet
facet normal 0.000000 0.000000 1.000000
outer loop
vertex 0.888360 0.118023 0.339439
vertex 0.857951 0.118023 0.339439
vertex 0.857951 0.002248 0.339439
endloop
endfacet
facet normal 0.000000 0.000000 1.000000
outer loop
vertex 0.888360 0.118023 0.339439
vertex 0.857951 0.002248 0.339439
vertex 0.888360 0.002248 0.339439
endloop
endfacet
facet normal -1.000000 0.000000 0.000000
outer loop
vertex 0.857951 0.118023 0.339439
vertex 0.857951 0.118023 -0.345443
vertex 0.857951 0.002248 -0.345443
endloop
endfacet
facet normal -1.000000 0.000000 0.000000
outer loop
vertex 0.857951 0.118023 0.339439
vertex 0.857951 0.002248 -0.345443
vertex 0.857951 0.002248 0.339439
endloop
endfacet
facet normal 0.000000 0.000000 -1.000000
outer loop
vertex 0.857951 0.118023 -0.345443
vertex 0.888360 0.118023 -0.345443
vertex 0.888360 0.002248 -0.345443
endloop
endfacet
facet normal 0.000000 0.000000 -1.000000
outer loop
vertex 0.857951 0.118023 -0.345443
vertex 0.888360 0.002248 -0.345443
vertex 0.857951 0.002248 -0.345443
endloop
endfacet
facet normal 1.000000 0.000000 0.000000
outer loop
vertex 0.888360 0.118023 -0.345443
vertex 0.888360 0.118023 0.339439
vertex 0.888360 0.002248 0.339439
endloop
endfacet
facet normal 1.000000 0.000000 0.000000
outer loop
vertex 0.888360 0.118023 -0.345443
vertex 0.888360 0.002248 0.339439
vertex 0.888360 0.002248 -0.345443
endloop
endfacet
facet normal 0.000000 1.000000 0.000000
outer loop
vertex 0.857951 0.118023 0.339439
vertex 0.888360 0.118023 0.339439
vertex 0.888360 0.118023 -0.345443
endloop
endfacet
facet normal 0.000000 1.000000 0.000000
outer loop
vertex 0.857951 0.118023 0.339439
vertex 0.888360 0.118023 -0.345443
vertex 0.857951 0.118023 -0.345443
endloop
endfacet
facet normal 0.000000 -1.000000 0.000000
outer loop
vertex 0.857951 0.002248 -0.345443
vertex 0.888360 0.002248 -0.345443
vertex 0.888360 0.002248 0.339439
endloop
endfacet
facet normal 0.000000 -1.000000 0.000000
outer loop
vertex 0.857951 0.002248 -0.345443
vertex 0.888360 0.002248 0.339439
vertex 0.857951 0.002248 0.339439
endloop
endfacet
facet normal 0.000000 0.000000 1.000000
outer loop
vertex -0.856220 0.118023 0.339439
vertex -0.886629 0.118023 0.339439
vertex -0.886629 0.002248 0.339439
endloop
endfacet
facet normal 0.000000 0.000000 1.000000
outer loop
vertex -0.856220 0.118023 0.339439
vertex -0.886629 0.002248 0.339439
vertex -0.856220 0.002248 0.339439
endloop
endfacet
facet normal -1.000000 0.000000 0.000000
outer loop
vertex -0.886629 0.118023 0.339439
vertex -0.886629 0.118023 -0.345443
vertex -0.886629 0.002248 -0.345443
endloop
endfacet
facet normal -1.000000 0.000000 0.000000
outer loop
vertex -0.886629 0.118023 0.339439
vertex -0.886629 0.002248 -0.345443
vertex -0.886629 0.002248 0.339439
endloop
endfacet
facet normal 0.000000 0.000000 -1.000000
outer loop
vertex -0.886629 0.118023 -0.345443
vertex -0.856220 0.118023 -0.345443
vertex -0.856220 0.002248 -0.345443
endloop
endfacet
facet normal 0.000000 0.000000 -1.000000
outer loop
vertex -0.886629 0.118023 -0.345443
vertex -0.856220 0.002248 -0.345443
vertex -0.886629 0.002248 -0.345443
endloop
endfacet
facet normal 1.000000 0.000000 0.000000
outer loop
vertex -0.856220 0.118023 -0.345443
vertex -0.856220 0.118023 0.339439
vertex -0.856220 0.002248 0.339439
endloop
endfacet
facet normal 1.000000 0.000000 0.000000
outer loop
vertex -0.856220 0.118023 -0.345443
vertex -0.856220 0.002248 0.339439
vertex -0.856220 0.002248 -0.345443
endloop
endfacet
facet normal 0.000000 1.000000 0.000000
outer loop
vertex -0.886629 0.118023 0.339439
vertex -0.856220 0.118023 0.339439
vertex -0.856220 0.118023 -0.345443
endloop
endfacet
facet normal 0.000000 1.000000 0.000000
outer loop
vertex -0.886629 0.118023 0.339439
vertex -0.856220 0.118023 -0.345443
vertex -0.886629 0.118023 -0.345443
endloop
endfacet
facet normal 0.000000 -1.000000 0.000000
outer loop
vertex -0.886629 0.002248 -0.345443
vertex -0.856220 0.002248 -0.345443
vertex -0.856220 0.002248 0.339439
endloop
endfacet
facet normal 0.000000 -1.000000 0.000000
outer loop
vertex -0.886629 0.002248 -0.345443
vertex -0.856220 0.002248 0.339439
vertex -0.886629 0.002248 0.339439
endloop
endfacet
endsolid Exported from Blender-2.80 (sub 75)
