solid Exported from Blender-2.80 (sub 75)
facet normal 1.000000 0.000000 0.000000
outer loop
vertex 1.000000 0.006003 0.510541
vertex 1.000000 -0.054575 0.510541
vertex 1.000000 -0.054575 -0.510541
endloop
endfacet
facet normal 1.000000 0.000000 0.000000
outer loop
vertex 1.000000 0.006003 0.510541
vertex 1.000000 -0.054575 -0.510541
vertex 1.000000 0.006003 -0.510541
endloop
endfacet
facet normal 0.000000 0.000000 -1.000000
outer loop
vertex 1.000000 0.006003 -0.510541
vertex 1.000000 -0.054575 -0.510541
vertex -1.000000 -0.054575 -0.510541
endloop
endfacet
facet normal 0.000000 0.000000 -1.000000
outer loop
vertex 1.000000 0.006003 -0.510541
vertex -1.000000 -0.054575 -0.510541
vertex -1.000000 0.006003 -0.510541
endloop
endfacet
facet normal -1.000000 0.000000 0.000000
outer loop
vertex -1.000000 0.006003 -0.510541
vertex -1.000000 -0.054575 -0.510541
vertex -1.000000 -0.054575 0.510541
endloop
endfacet
facet normal -1.000000 0.000000 0.000000
outer loop
vertex -1.000000 0.006003 -0.510541
vertex -1.000000 -0.054575 0.510541
vertex -1.000000 0.006003 0.510541
endloop
endfacet
facet normal 0.000000 0.000000 1.000000
outer loop
vertex -1.000000 0.006003 0.510541
vertex -1.000000 -0.054575 0.510541
vertex 1.000000 -0.054575 0.510541
endloop
endfacet
facet normal 0.000000 0.000000 1.000000
outer loop
vertex -1.000000 0.006003 0.510541
vertex 1.000000 -0.054575 0.510541
vertex 1.000000 0.006003 0.510541
endloop
endfacet
facet normal 0.000000 -1.000000 0.000000
outer loop
vertex -1.000000 -0.054575 -0.510541
vertex 1.000000 -0.054575 -0.510541
vertex 1.000000 -0.054575 0.510541
endloop
endfacet
facet normal 0.000000 -1.000000 0.000000
outer loop
vertex -1.000000 -0.054575 -0.510541
vertex 1.000000 -0.054575 0.510541
vertex -1.000000 -0.054575 0.510541
endloop
endfacet
facet normal 0.000000 1.000000 0.000000
outer loop
vertex 1.000000 0.006003 -0.510541
vertex -1.000000 0.006003 -0.510541
vertex -1.000000 0.006003 0.510541
endloop
endfacet
facet normal 0.000000 1.000000 0.000000
outer loop
vertex 1.000000 0.006003 -0.510541
vertex -1.000000 0.006003 0.510541
vertex 1.000000 0.006003 0.510541
endloop
endfacet
endsolid Exported from Blender-2.80 (sub 75)
