solid Exported from Blender-2.80 (sub 75)
facet normal 1.000000 0.000000 0.000000
outer loop
vertex -0.817990 0.789612 0.404859
vertex -0.817990 -0.002967 0.404859
vertex -0.817990 -0.002967 0.298862
endloop
endfacet
facet normal 1.000000 0.000000 0.000000
outer loop
vertex -0.817990 0.789612 0.404859
vertex -0.817990 -0.002967 0.298862
vertex -0.817990 0.789612 0.298862
endloop
endfacet
facet normal 0.000000 0.000000 -1.000000
outer loop
vertex -0.817990 0.789612 0.298862
vertex -0.817990 -0.002967 0.298862
vertex -0.914104 -0.002967 0.298862
endloop
endfacet
facet normal 0.000000 0.000000 -1.000000
outer loop
vertex -0.817990 0.789612 0.298862
vertex -0.914104 -0.002967 0.298862
vertex -0.914104 0.789612 0.298862
endloop
endfacet
facet normal -1.000000 0.000000 0.000000
outer loop
vertex -0.914104 0.789612 0.298862
vertex -0.914104 -0.002967 0.298862
vertex -0.914104 -0.002967 0.404859
endloop
endfacet
facet normal -1.000000 0.000000 0.000000
outer loop
vertex -0.914104 0.789612 0.298862
vertex -0.914104 -0.002967 0.404859
vertex -0.914104 0.789612 0.404859
endloop
endfacet
facet normal 0.000000 0.000000 1.000000
outer loop
vertex -0.914104 0.789612 0.404859
vertex -0.914104 -0.002967 0.404859
vertex -0.817990 -0.002967 0.404859
endloop
endfacet
facet normal 0.000000 0.000000 1.000000
outer loop
vertex -0.914104 0.789612 0.404859
vertex -0.817990 -0.002967 0.404859
vertex -0.817990 0.789612 0.404859
endloop
endfacet
facet normal 0.000000 1.000000 0.000000
outer loop
vertex -0.817990 0.789612 0.298862
vertex -0.914104 0.789612 0.298862
vertex -0.914104 0.789612 0.404859
endloop
endfacet
facet normal 0.000000 1.000000 0.000000
outer loop
vertex -0.817990 0.789612 0.298862
vertex -0.914104 0.789612 0.404859
vertex -0.817990 0.789612 0.404859
endloop
endfacet
facet normal 0.000000 -1.000000 0.000000
outer loop
vertex -0.914104 -0.002967 0.298862
vertex -0.817990 -0.002967 0.298862
vertex -0.817990 -0.002967 0.404859
endloop
endfacet
facet normal 0.000000 -1.000000 0.000000
outer loop
vertex -0.914104 -0.002967 0.298862
vertex -0.817990 -0.002967 0.404859
vertex -0.914104 -0.002967 0.404859
endloop
endfacet
facet normal 1.000000 0.000000 0.000000
outer loop
vertex 0.920781 0.789612 0.404859
vertex 0.920781 -0.002967 0.404859
vertex 0.920781 -0.002967 0.298862
endloop
endfacet
facet normal 1.000000 0.000000 0.000000
outer loop
vertex 0.920781 0.789612 0.404859
vertex 0.920781 -0.002967 0.298862
vertex 0.920781 0.789612 0.298862
endloop
endfacet
facet normal 0.000000 0.000000 -1.000000
outer loop
vertex 0.920781 0.789612 0.298862
vertex 0.920781 -0.002967 0.298862
vertex 0.824668 -0.002967 0.298862
endloop
endfacet
facet normal 0.000000 0.000000 -1.000000
outer loop
vertex 0.920781 0.789612 0.298862
vertex 0.824668 -0.002967 0.298862
vertex 0.824668 0.789612 0.298862
endloop
endfacet
facet normal -1.000000 0.000000 0.000000
outer loop
vertex 0.824668 0.789612 0.298862
vertex 0.824668 -0.002967 0.298862
vertex 0.824668 -0.002967 0.404859
endloop
endfacet
facet normal -1.000000 0.000000 0.000000
outer loop
vertex 0.824668 0.789612 0.298862
vertex 0.824668 -0.002967 0.404859
vertex 0.824668 0.789612 0.404859
endloop
endfacet
facet normal 0.000000 0.000000 1.000000
outer loop
vertex 0.824668 0.789612 0.404859
vertex 0.824668 -0.002967 0.404859
vertex 0.920781 -0.002967 0.404859
endloop
endfacet
facet normal 0.000000 0.000000 1.000000
outer loop
vertex 0.824668 0.789612 0.404859
vertex 0.920781 -0.002967 0.404859
vertex 0.920781 0.789612 0.404859
endloop
endfacet
facet normal 0.000000 1.000000 0.000000
outer loop
vertex 0.920781 0.789612 0.298862
vertex 0.824668 0.789612 0.298862
vertex 0.824668 0.789612 0.404859
endloop
endfacet
facet normal 0.000000 1.000000 0.000000
outer loop
vertex 0.920781 0.789612 0.298862
vertex 0.824668 0.789612 0.404859
vertex 0.920781 0.789612 0.404859
endloop
endfacet
facet normal 0.000000 -1.000000 0.000000
outer loop
vertex 0.824668 -0.002967 0.298862
vertex 0.920781 -0.002967 0.298862
vertex 0.920781 -0.002967 0.404859
endloop
endfacet
facet normal 0.000000 -1.000000 0.000000
outer loop
vertex 0.824668 -0.002967 0.298862
vertex 0.920781 -0.002967 0.404859
vertex 0.824668 -0.002967 0.404859
endloop
endfacet
facet normal 1.000000 0.000000 0.000000
outer loop
vertex 0.920781 0.789612 -0.302506
vertex 0.920781 -0.002967 -0.302506
vertex 0.920781 -0.002967 -0.408503
endloop
endfacet
facet normal 1.000000 0.000000 0.000000
outer loop
vertex 0.920781 0.789612 -0.302506
vertex 0.920781 -0.002967 -0.408503
vertex 0.920781 0.789612 -0.408503
endloop
endfacet
facet normal 0.000000 0.000000 -1.000000
outer loop
vertex 0.920781 0.789612 -0.408503
vertex 0.920781 -0.002967 -0.408503
vertex 0.824668 -0.002967 -0.408503
endloop
endfacet
facet normal 0.000000 0.000000 -1.000000
outer loop
vertex 0.920781 0.789612 -0.408503
vertex 0.824668 -0.002967 -0.408503
vertex 0.824668 0.789612 -0.408503
endloop
endfacet
facet normal -1.000000 0.000000 0.000000
outer loop
vertex 0.824668 0.789612 -0.408503
vertex 0.824668 -0.002967 -0.408503
vertex 0.824668 -0.002967 -0.302506
endloop
endfacet
facet normal -1.000000 0.000000 0.000000
outer loop
vertex 0.824668 0.789612 -0.408503
vertex 0.824668 -0.002967 -0.302506
vertex 0.824668 0.789612 -0.302506
endloop
endfacet
facet normal 0.000000 0.000000 1.000000
outer loop
vertex 0.824668 0.789612 -0.302506
vertex 0.824668 -0.002967 -0.302506
vertex 0.920781 -0.002967 -0.302506
endloop
endfacet
facet normal 0.000000 0.000000 1.000000
outer loop
vertex 0.824668 0.789612 -0.302506
vertex 0.920781 -0.002967 -0.302506
vertex 0.920781 0.789612 -0.302506
endloop
endfacet
facet normal 0.000000 1.000000 0.000000
outer loop
vertex 0.920781 0.789612 -0.408503
vertex 0.824668 0.789612 -0.408503
vertex 0.824668 0.789612 -0.302506
endloop
endfacet
facet normal 0.000000 1.000000 0.000000
outer loop
vertex 0.920781 0.789612 -0.408503
vertex 0.824668 0.789612 -0.302506
vertex 0.920781 0.789612 -0.302506
endloop
endfacet
facet normal 0.000000 -1.000000 0.000000
outer loop
vertex 0.824668 -0.002967 -0.408503
vertex 0.920781 -0.002967 -0.408503
vertex 0.920781 -0.002967 -0.302506
endloop
endfacet
facet normal 0.000000 -1.000000 0.000000
outer loop
vertex 0.824668 -0.002967 -0.408503
vertex 0.920781 -0.002967 -0.302506
vertex 0.824668 -0.002967 -0.302506
endloop
endfacet
facet normal 1.000000 0.000000 0.000000
outer loop
vertex -0.818370 0.789612 -0.302506
vertex -0.818370 -0.002967 -0.302506
vertex -0.818370 -0.002967 -0.408503
endloop
endfacet
facet normal 1.000000 0.000000 0.000000
outer loop
vertex -0.818370 0.789612 -0.302506
vertex -0.818370 -0.002967 -0.408503
vertex -0.818370 0.789612 -0.408503
endloop
endfacet
facet normal 0.000000 0.000000 -1.000000
outer loop
vertex -0.818370 0.789612 -0.408503
vertex -0.818370 -0.002967 -0.408503
vertex -0.914483 -0.002967 -0.408503
endloop
endfacet
facet normal 0.000000 0.000000 -1.000000
outer loop
vertex -0.818370 0.789612 -0.408503
vertex -0.914483 -0.002967 -0.408503
vertex -0.914483 0.789612 -0.408503
endloop
endfacet
facet normal -1.000000 0.000000 0.000000
outer loop
vertex -0.914483 0.789612 -0.408503
vertex -0.914483 -0.002967 -0.408503
vertex -0.914483 -0.002967 -0.302506
endloop
endfacet
facet normal -1.000000 0.000000 0.000000
outer loop
vertex -0.914483 0.789612 -0.408503
vertex -0.914483 -0.002967 -0.302506
vertex -0.914483 0.789612 -0.302506
endloop
endfacet
facet normal 0.000000 0.000000 1.000000
outer loop
vertex -0.914483 0.789612 -0.302506
vertex -0.914483 -0.002967 -0.302506
vertex -0.818370 -0.002967 -0.302506
endloop
endfacet
facet normal 0.000000 0.000000 1.000000
outer loop
vertex -0.914483 0.789612 -0.302506
vertex -0.818370 -0.002967 -0.302506
vertex -0.818370 0.789612 -0.302506
endloop
endfacet
facet normal 0.000000 1.000000 0.000000
outer loop
vertex -0.818370 0.789612 -0.408503
vertex -0.914483 0.789612 -0.408503
vertex -0.914483 0.789612 -0.302506
endloop
endfacet
facet normal 0.000000 1.000000 0.000000
outer loop
vertex -0.818370 0.789612 -0.408503
vertex -0.914483 0.789612 -0.302506
vertex -0.818370 0.789612 -0.302506
endloop
endfacet
facet normal 0.000000 -1.000000 0.000000
outer loop
vertex -0.914483 -0.002967 -0.408503
vertex -0.818370 -0.002967 -0.408503
vertex -0.818370 -0.002967 -0.302506
endloop
endfacet
facet normal 0.000000 -1.000000 0.000000
outer loop
vertex -0.914483 -0.002967 -0.408503
vertex -0.818370 -0.002967 -0.302506
vertex -0.914483 -0.002967 -0.302506
endloop
endfacet
facet normal 1.000000 0.000000 0.000000
outer loop
vertex 0.863603 0.118023 0.337695
vertex 0.863603 0.118023 0.368104
vertex 0.863603 0.002248 0.368104
endloop
endfacet
facet normal 1.000000 0.000000 0.000000
outer loop
vertex 0.863603 0.118023 0.337695
vertex 0.863603 0.002248 0.368104
vertex 0.863603 0.002248 0.337695
endloop
endfacet
facet normal 0.000000 0.000000 1.000000
outer loop
vertex 0.863603 0.118023 0.368104
vertex -0.863603 0.118023 0.368104
vertex -0.863603 0.002248 0.368104
endloop
endfacet
facet normal 0.000000 0.000000 1.000000
outer loop
vertex 0.863603 0.118023 0.368104
vertex -0.863603 0.002248 0.368104
vertex 0.863603 0.002248 0.368104
endloop
endfacet
facet normal -1.000000 0.000000 0.000000
outer loop
vertex -0.863603 0.118023 0.368104
vertex -0.863603 0.118023 0.337695
vertex -0.863603 0.002248 0.337695
endloop
endfacet
facet normal -1.000000 0.000000 0.000000
outer loop
vertex -0.863603 0.118023 0.368104
vertex -0.863603 0.002248 0.337695
vertex -0.863603 0.002248 0.368104
endloop
endfacet
facet normal 0.000000 0.000000 -1.000000
outer loop
vertex -0.863603 0.118023 0.337695
vertex 0.863603 0.118023 0.337695
vertex 0.863603 0.002248 0.337695
endloop
endfacet
facet normal 0.000000 0.000000 -1.000000
outer loop
vertex -0.863603 0.118023 0.337695
vertex 0.863603 0.002248 0.337695
vertex -0.863603 0.002248 0.337695
endloop
endfacet
facet normal 0.000000 1.000000 0.000000
outer loop
vertex 0.863603 0.118023 0.368104
vertex 0.863603 0.118023 0.337695
vertex -0.863603 0.118023 0.337695
endloop
endfacet
facet normal 0.000000 1.000000 0.000000
outer loop
vertex 0.863603 0.118023 0.368104
vertex -0.863603 0.118023 0.337695
vertex -0.863603 0.118023 0.368104
endloop
endfacet
facet normal 0.000000 -1.000000 0.000000
outer loop
vertex -0.863603 0.002248 0.368104
vertex -0.863603 0.002248 0.337695
vertex 0.863603 0.002248 0.337695
endloop
endfacet
facet normal 0.000000 -1.000000 0.000000
outer loop
vertex -0.863603 0.002248 0.368104
vertex 0.863603 0.002248 0.337695
vertex 0.863603 0.002248 0.368104
endloop
endfacet
facet normal 1.000000 0.000000 0.000000
outer loop
vertex 0.863603 0.118023 -0.368815
vertex 0.863603 0.118023 -0.338406
vertex 0.863603 0.002248 -0.338406
endloop
endfacet
facet normal 1.000000 0.000000 0.000000
outer loop
vertex 0.863603 0.118023 -0.368815
vertex 0.863603 0.002248 -0.338406
vertex 0.863603 0.002248 -0.368815
endloop
endfacet
facet normal 0.000000 0.000000 1.000000
outer loop
vertex 0.863603 0.118023 -0.338406
vertex -0.863603 0.118023 -0.338406
vertex -0.863603 0.002248 -0.338406
endloop
endfacet
facet normal 0.000000 0.000000 1.000000
outer loop
vertex 0.863603 0.118023 -0.338406
vertex -0.863603 0.002248 -0.338406
vertex 0.863603 0.002248 -0.338406
endloop
endfacet
facet normal -1.000000 0.000000 0.000000
outer loop
vertex -0.863603 0.118023 -0.338406
vertex -0.863603 0.118023 -0.368815
vertex -0.863603 0.002248 -0.368815
endloop
endfacet
facet normal -1.000000 0.000000 0.000000
outer loop
vertex -0.863603 0.118023 -0.338406
vertex -0.863603 0.002248 -0.368815
vertex -0.863603 0.002248 -0.338406
endloop
endfacet
facet normal 0.000000 0.000000 -1.000000
outer loop
vertex -0.863603 0.118023 -0.368815
vertex 0.863603 0.118023 -0.368815
vertex 0.863603 0.002248 -0.368815
endloop
endfacet
facet normal 0.000000 0.000000 -1.000000
outer loop
vertex -0.863603 0.118023 -0.368815
vertex 0.863603 0.002248 -0.368815
vertex -0.863603 0.002248 -0.368815
endloop
endfacet
facet normal 0.000000 1.000000 0.000000
outer loop
vertex 0.863603 0.118023 -0.338406
vertex 0.863603 0.118023 -0.368815
vertex -0.863603 0.118023 -0.368815
endloop
endfacet
facet normal 0.000000 1.000000 0.000000
outer loop
vertex 0.863603 0.118023 -0.338406
vertex -0.863603 0.118023 -0.368815
vertex -0.863603 0.118023 -0.338406
endloop
endfacet
facet normal 0.000000 -1.000000 0.000000
outer loop
vertex -0.863603 0.002248 -0.338406
vertex -0.863603 0.002248 -0.368815
vertex 0.863603 0.002248 -0.368815
endloop
endfacet
facet normal 0.000000 -1.000000 0.000000
outer loop
vertex -0.863603 0.002248 -0.338406
vertex 0.863603 0.002248 -0.368815
vertex 0.863603 0.002248 -0.338406
endloop
endfacet
facet normal 0.000000 0.000000 1.000000
outer loop
vertex 0.888360 0.118023 0.339439
vertex 0.857951 0.118023 0.339439
vertex 0.857951 0.002248 0.339439
endloop
endfacet
facet normal 0.000000 0.000000 1.000000
outer loop
vertex 0.888360 0.118023 0.339439
vertex 0.857951 0.002248 0.339439
vertex 0.888360 0.002248 0.339439
endloop
endfacet
facet normal -1.000000 0.000000 0.000000
outer loop
vertex 0.857951 0.118023 0.339439
vertex 0.857951 0.118023 -0.345443
vertex 0.857951 0.002248 -0.345443
endloop
endfacet
facet normal -1.000000 0.000000 0.000000
outer loop
vertex 0.857951 0.118023 0.339439
vertex 0.857951 0.002248 -0.345443
vertex 0.857951 0.002248 0.339439
endloop
endfacet
facet normal 0.000000 0.000000 -1.000000
outer loop
vertex 0.857951 0.118023 -0.345443
vertex 0.888360 0.118023 -0.345443
vertex 0.888360 0.002248 -0.345443
endloop
endfacet
facet normal 0.000000 0.000000 -1.000000
outer loop
vertex 0.857951 0.118023 -0.345443
vertex 0.888360 0.002248 -0.345443
vertex 0.857951 0.002248 -0.345443
endloop
endfacet
facet normal 1.000000 0.000000 0.000000
outer loop
vertex 0.888360 0.118023 -0.345443
vertex 0.888360 0.118023 0.339439
vertex 0.888360 0.002248 0.339439
endloop
endfacet
facet normal 1.000000 0.000000 0.000000
outer loop
vertex 0.888360 0.118023 -0.345443
vertex 0.888360 0.002248 0.339439
vertex 0.888360 0.002248 -0.345443
endloop
endfacet
facet normal 0.000000 1.000000 0.000000
outer loop
vertex 0.857951 0.118023 0.339439
vertex 0.888360 0.118023 0.339439
vertex 0.888360 0.118023 -0.345443
endloop
endfacet
facet normal 0.000000 1.000000 0.000000
outer loop
vertex 0.857951 0.118023 0.339439
vertex 0.888360 0.118023 -0.345443
vertex 0.857951 0.118023 -0.345443
endloop
endfacet
facet normal 0.000000 -1.000000 0.000000
outer loop
vertex 0.857951 0.002248 -0.345443
vertex 0.888360 0.002248 -0.345443
vertex 0.888360 0.002248 0.339439
endloop
endfacet
facet normal 0.000000 -1.000000 0.000000
outer loop
vertex 0.857951 0.002248 -0.345443
vertex 0.888360 0.002248 0.339439
vertex 0.857951 0.002248 0.339439
endloop
endfacet
facet normal 0.000000 0.000000 1.000000
outer loop
vertex -0.856220 0.118023 0.339439
vertex -0.886629 0.118023 0.339439
vertex -0.886629 0.002248 0.339439
endloop
endfacet
facet normal 0.000000 0.000000 1.000000
outer loop
vertex -0.856220 0.118023 0.339439
vertex -0.886629 0.002248 0.339439
vertex -0.856220 0.002248 0.339439
endloop
endfacet
facet normal -1.000000 0.000000 0.000000
outer loop
vertex -0.886629 0.118023 0.339439
vertex -0.886629 0.118023 -0.345443
vertex -0.886629 0.002248 -0.345443
endloop
endfacet
facet normal -1.000000 0.000000 0.000000
outer loop
vertex -0.886629 0.118023 0.339439
vertex -0.886629 0.002248 -0.345443
vertex -0.886629 0.002248 0.339439
endloop
endfacet
facet normal 0.000000 0.000000 -1.000000
outer loop
vertex -0.886629 0.118023 -0.345443
vertex -0.856220 0.118023 -0.345443
vertex -0.856220 0.002248 -0.345443
endloop
endfacet
facet normal 0.000000 0.000000 -1.000000
outer loop
vertex -0.886629 0.118023 -0.345443
vertex -0.856220 0.002248 -0.345443
vertex -0.886629 0.002248 -0.345443
endloop
endfacet
facet normal 1.000000 0.000000 0.000000
outer loop
vertex -0.856220 0.118023 -0.345443
vertex -0.856220 0.118023 0.339439
vertex -0.856220 0.002248 0.339439
endloop
endfacet
facet normal 1.000000 0.000000 0.000000
outer loop
vertex -0.856220 0.118023 -0.345443
vertex -0.856220 0.002248 0.339439
vertex -0.856220 0.002248 -0.345443
endloop
endfacet
facet normal 0.000000 1.000000 0.000000
outer loop
vertex -0.886629 0.118023 0.339439
vertex -0.856220 0.118023 0.339439
vertex -0.856220 0.118023 -0.345443
endloop
endfacet
facet normal 0.000000 1.000000 0.000000
outer loop
vertex -0.886629 0.118023 0.339439
vertex -0.856220 0.118023 -0.345443
vertex -0.886629 0.118023 -0.345443
endloop
endfacet
facet normal 0.000000 -1.000000 0.000000
outer loop
vertex -0.886629 0.002248 -0.345443
vertex -0.856220 0.002248 -0.345443
vertex -0.856220 0.002248 0.339439
endloop
endfacet
facet normal 0.000000 -1.000000 0.000000
outer loop
vertex -0.886629 0.002248 -0.345443
vertex -0.856220 0.002248 0.339439
vertex -0.886629 0.002248 0.339439
endloop
endfacet
endsolid Exported from Blender-2.80 (sub 75)
